# xmcd
#
# Track frame offsets:
#	225
#	12758
#	20924
#	30969
#	39918
#	48655
#	59159
#	67752
#	74716
#	83362
#	94938
#	104357
#	119809
#	131022
#	138331
#	147305
#	157211
#	166724
#	177562
#	189496
#	201185
#	208920
#	216738
#	225470
#	235750
#	245572
#	252696
#	262517
#	268779
#	278519
#	285603
#	295470
#
# Disc length: 4026
#
# Revision: 1
# Processed by: cddbd v1.5.1PL0 Copyright (c) Steve Scherf et al.
# Submitted via: MusicManager v6.0.0.0
# Normalized: r0:DSETVAR1
#
DISCID=f20fb720
DTITLE=Various Artist - Honky Tonk Rockabillies Volume 2
DYEAR=1900
DGENRE=country
TTITLE0=Joe Maphis - Town Hall Boogie
TTITLE1=Carl Smith - Go Boy Go
TTITLE2=Merle Travis - Sweet Temptation
TTITLE3=Johnny Bond - Louisiana Swing
TTITLE4=Carl Smith - Call Me Mr. Lost
TTITLE5=Joe and Rose Lee Maphis - You Don't Love Me Like You Used To
TTITLE6=Webb Pierce - Love Love Love
TTITLE7=Webb Pierce - Honky Tonk Song
TTITLE8=Lonzo and Oscar - It Can't Be Done
TTITLE9=Spade Cooley - My Chickashay Gal
TTITLE10=Warner Mack - Baby I'm Lonesome For You
TTITLE11=Johnny Cash - I Walk the Line (live)
TTITLE12=Carl Smith - Back Up Buddy
TTITLE13=Ronnie Self - Bop a Lena
TTITLE14=Faron Young - Just Married
TTITLE15=Merle Travis - When My Baby Does Her Double Talk to Me
TTITLE16=Marty Robbins - Pretty Words
TTITLE17=Carl Smith - Hey Joe (live)
TTITLE18=Merle Travis - House of David Blues
TTITLE19=Bob Luman - Oh Lonesome Me
TTITLE20=Johnny Bond - Oklahoma Hills
TTITLE21=Skeets McDonald - Jambalaya
TTITLE22=Rose Maddox - Down Down Down
TTITLE23=Tom Tall - This Old Heart
TTITLE24=Gordon Terry - Blue Blue Day
TTITLE25=Johnny Cash - Big River (live)
TTITLE26=Bob Luman - The File
TTITLE27=Joe and Rose Lee Maphis - My Curly Headed Baby
TTITLE28=Merle Travis - Nine Pound Hammer
TTITLE29=Skeeter Davis - Rockabye Boogie
TTITLE30=Bob Wills and Tommy Duncan - Stay All Night
TTITLE31=Marty Robbins - Maybelline
EXTD=
EXTT0=
EXTT1=
EXTT2=
EXTT3=
EXTT4=
EXTT5=
EXTT6=
EXTT7=
EXTT8=
EXTT9=
EXTT10=
EXTT11=
EXTT12=
EXTT13=
EXTT14=
EXTT15=
EXTT16=
EXTT17=
EXTT18=
EXTT19=
EXTT20=
EXTT21=
EXTT22=
EXTT23=
EXTT24=
EXTT25=
EXTT26=
EXTT27=
EXTT28=
EXTT29=
EXTT30=
EXTT31=
PLAYORDER=
